<?xml version="1.0" encoding="utf-8"?>
<!-- Generator: Adobe Illustrator 26.0.3, SVG Export Plug-In . SVG Version: 6.00 Build 0)  -->
<svg version="1.1" id="Layer_1" xmlns="http://www.w3.org/2000/svg" xmlns:xlink="http://www.w3.org/1999/xlink" x="0px" y="0px"
	 viewBox="0 0 500 500" style="enable-background:new 0 0 500 500;" xml:space="preserve">
<style type="text/css">
	.st0{fill:#E58A45;}
	.st1{fill:#E7B7B7;}
	.st2{fill:#7A1F0C;}
	.st3{fill:#FAFAFF;}
	.st4{fill:#E3A2A2;}
	.st5{fill:#0F1444;}
	.st6{fill:#BF504C;}
</style>
<g>
	<g>
		<g>
			<path class="st0" d="M376.4,298.3c4.6-11.8,13.9-31.7,4.8-50c-13.1-26.1-22.4-35.2-22.8-69.2c-9.4,37.6,3.9,51.6,15,70.8
				s-2.8,41.3-7.9,56.8c-2.6,8,10.4,17.2,7.6,41.7C385,328.6,367.8,320.2,376.4,298.3z"/>
			<path class="st0" d="M125.4,298.3c-4.6-11.8-13.9-31.7-4.8-50c13.1-26.1,22.4-35.2,22.8-69.2c9.4,37.6-3.9,51.6-15,70.8
				s2.8,41.3,7.9,56.8c2.6,8-10.4,17.2-7.6,41.7C116.7,328.6,134,320.2,125.4,298.3z"/>
		</g>
		<path class="st0" d="M360.9,319.1c16,28.6-1.6,61.1-29.3,61.1c-29.4,0-31.6,30.9-80.8,30.9c-49.2,0-51.4-30.9-80.8-30.9
			c-27.7,0-45.3-32.4-29.3-61c11.7-20.9-19.5-34-3.7-70.5c16.8-38.7,6.3-36.3,6.3-69.4c0-63.2,39.3-113.5,107.5-113.5
			c68.1,0,107.5,50.3,107.5,113.5c0,33.2-10.4,30.8,6.3,69.4C380.5,285.1,349.3,298.2,360.9,319.1z"/>
		<g>
			<rect x="201.7" y="266" class="st1" width="98.4" height="106.1"/>
			<path class="st2" d="M300.1,266v32.8c-2.8,13.3-27.4,26.2-49.2,26.2c-21.8,0-46.4-12.9-49.2-26.2V266H300.1z"/>
		</g>
		<g>
			<path class="st1" d="M311.6,195.8c8.4-12.6,27.9-19.9,36.2-5c8.1,14.5,2.5,60.2-24.8,51.8C304.7,236.9,304.8,206.1,311.6,195.8z"
				/>
			<path class="st2" d="M319,222.2c-1,0-1.8-0.8-1.8-1.8c0-16.8,9.6-25.3,17.8-27.5c0.9-0.3,1.9,0.3,2.2,1.3
				c0.3,0.9-0.3,1.9-1.3,2.2c-7,1.9-15.2,9.3-15.2,24.1C320.8,221.4,320,222.2,319,222.2z"/>
			<circle class="st3" cx="333.3" cy="230.9" r="6.6"/>
		</g>
		<g>
			<path class="st1" d="M190.1,195.8c-8.4-12.6-27.9-19.9-36.2-5c-8.1,14.5-2.5,60.2,24.8,51.8C197.1,236.9,196.9,206.1,190.1,195.8
				z"/>
			<path class="st2" d="M182.8,222.2c1,0,1.8-0.8,1.8-1.8c0-16.8-9.6-25.3-17.8-27.5c-0.9-0.3-1.9,0.3-2.2,1.3
				c-0.3,0.9,0.3,1.9,1.3,2.2c7,1.9,15.2,9.3,15.2,24.1C181,221.4,181.8,222.2,182.8,222.2z"/>
			<circle class="st3" cx="168.5" cy="230.9" r="6.6"/>
		</g>
		<path class="st1" d="M250.9,115.8c-98.3,0-74.6,67.6-74.6,101.3s-1.2,89.5,74.6,89.5c75.8,0,74.6-55.8,74.6-89.5
			S349.2,115.8,250.9,115.8z"/>
		<g>
			<path class="st2" d="M254.8,244.7c-3,0-6.6-0.9-9-2.7c-1.5-1.2-2.4-2.7-2.5-4.4c-0.1-1.9,0.1-4.5,0.5-8.1
				c0.5-5.3,1.4-13.2,1.4-24.3c0-1,0.8-1.8,1.8-1.8c1,0,1.8,0.8,1.8,1.8c0,11.3-0.8,19.3-1.4,24.7c-0.4,3.4-0.6,5.9-0.5,7.4
				c0.1,0.7,0.4,1.3,1.2,1.8c2.1,1.6,6.1,2.2,8.4,1.8c1-0.2,1.9,0.5,2.1,1.4c0.2,1-0.5,1.9-1.4,2.1
				C256.4,244.7,255.6,244.7,254.8,244.7z"/>
			<path class="st4" d="M184.4,213.9c-4,7.6-1.9,16.7,4.8,20.2c6.7,3.6,15.4,0.3,19.5-7.3c4-7.6,1.9-16.7-4.8-20.2
				C197.1,203,188.4,206.3,184.4,213.9z"/>
			<path class="st4" d="M317.4,213.9c4,7.6,1.9,16.7-4.8,20.2c-6.7,3.6-15.4,0.3-19.5-7.3c-4-7.6-1.9-16.7,4.8-20.2
				C304.7,203,313.4,206.3,317.4,213.9z"/>
			<path class="st3" d="M244,260.7c8.7,1.4,30-4.7,36.5-16.6c4.9,0.5,15.2,16.4-8,27.3C248.9,282.5,242,264.4,244,260.7z"/>
			<path class="st0" d="M235.7,177.1c-1.2,4-11.2-3.2-17.1-2.6c-10,1-10.4,6-14,5.1c-0.5-4.6,5.9-10.5,14.6-11
				C231.9,167.7,235.7,177.1,235.7,177.1z"/>
			<g>
				<path class="st5" d="M217.5,194.6c0,5.3,2.5,9.6,5.6,9.6c3.1,0,5.6-4.3,5.6-9.6c0-5.3-2.5-9.6-5.6-9.6
					C220,185,217.5,189.3,217.5,194.6z"/>
				<path class="st5" d="M223.1,185c-6.3-0.9-10.8,0.8-10.8,0.8c5.6,0.4,7.7,3.1,7.7,3.1L223.1,185z"/>
			</g>
			<path class="st0" d="M266.1,177.1c1.2,4,11.2-3.2,17.1-2.6c10,1,10.4,6,14,5.1c0.5-4.6-5.9-10.5-14.6-11
				C269.8,167.7,266.1,177.1,266.1,177.1z"/>
			<g>
				<path class="st5" d="M284.3,194.6c0,5.3-2.5,9.6-5.6,9.6c-3.1,0-5.6-4.3-5.6-9.6c0-5.3,2.5-9.6,5.6-9.6
					C281.8,185,284.3,189.3,284.3,194.6z"/>
				<path class="st5" d="M278.7,185c6.3-0.9,10.8,0.8,10.8,0.8c-5.6,0.4-7.7,3.1-7.7,3.1L278.7,185z"/>
			</g>
		</g>
		<path class="st0" d="M250.9,111.4c-95.6,0-77.1,74.9-77.1,74.9c4.7,26.7,19.3,12.2,18-8.2c0-26.8,13.4-51.2,59.1-51.2
			s59.1,24.4,59.1,51.2c-1.3,20.4,13.3,34.9,18,8.2C328,186.3,346.5,111.4,250.9,111.4z"/>
	</g>
	<g>
		<path class="st6" d="M459.3,499.6H42.5c0-66.3,24.5-123.7,52.4-137.9c27.7-14.2,86.8-10.7,106.8-21c0,0,8.7,31.4,49.2,31.4
			c40.5,0,49.2-31.4,49.2-31.4c20,10.4,79.1,6.8,106.8,21C434.7,376,459.3,433.4,459.3,499.6z"/>
		<g>
			<path class="st5" d="M395,498C395,498,395,498,395,498c-1.1,0-1.8-0.9-1.8-1.8c0-0.5,1.9-51.5-6-84.7c-0.2-1,0.4-1.9,1.3-2.1
				c1-0.2,1.9,0.4,2.1,1.3c8.1,33.7,6.2,85.2,6.1,85.7C396.8,497.3,396,498,395,498z"/>
			<path class="st5" d="M106.7,498c-0.9,0-1.7-0.7-1.8-1.7c0-0.5-1.9-52,6.1-85.7c0.2-1,1.2-1.5,2.1-1.3c1,0.2,1.5,1.2,1.3,2.1
				c-8,33.2-6.1,84.2-6,84.7C108.5,497.2,107.8,498,106.7,498C106.8,498,106.8,498,106.7,498z"/>
		</g>
		<g>
			<path class="st3" d="M324.4,346.8L324.4,346.8c-10.5-7.1-18.7-11.7-24.3-14.6c0,0-7.7,35.9-41.6,39.5v67.5
				C308.7,439.2,324.4,380.1,324.4,346.8z"/>
			<path class="st3" d="M177.4,346.8L177.4,346.8c10.5-7.1,18.7-11.7,24.3-14.6c0,0,7.7,35.9,41.6,39.5v67.5
				C193.1,439.2,177.4,380.1,177.4,346.8z"/>
		</g>
	</g>
</g>
<g>
</g>
<g>
</g>
<g>
</g>
<g>
</g>
<g>
</g>
</svg>
