<?xml version="1.0" encoding="utf-8"?>
<!-- Generator: Adobe Illustrator 26.0.3, SVG Export Plug-In . SVG Version: 6.00 Build 0)  -->
<svg version="1.1" id="Layer_1" xmlns="http://www.w3.org/2000/svg" xmlns:xlink="http://www.w3.org/1999/xlink" x="0px" y="0px"
	 viewBox="0 0 2000 2000" style="enable-background:new 0 0 2000 2000;" xml:space="preserve">
<style type="text/css">
	.st0{clip-path:url(#SVGID_00000060710222744048884100000012433548508955345319_);}
	.st1{fill:#E6E6E6;}
	.st2{fill:#6C63FF;}
	.st3{fill:#3F3D56;}
	.st4{fill:#FFB6B6;}
	.st5{fill:#2F2E41;}
	.st6{fill:#F2F2F2;}
	.st7{fill:#CCCCCC;}
	.st8{fill:#FFFFFF;}
	.st9{fill:#CACACA;}
</style>
<g>
	<defs>
		<rect id="SVGID_1_" x="7.4" y="253.4" width="1985.6" height="1472.4"/>
	</defs>
	<clipPath id="SVGID_00000150081673104178468750000003387994540881402254_">
		<use xlink:href="#SVGID_1_"  style="overflow:visible;"/>
	</clipPath>
	<g style="clip-path:url(#SVGID_00000150081673104178468750000003387994540881402254_);">
		<path class="st1" d="M195,1719h421v-12.9c0-11.2-4.5-22-12.4-29.9c-7.9-7.9-18.7-12.4-29.9-12.4H237.3c-11.2,0-22,4.5-29.9,12.4
			c-7.9,7.9-12.4,18.7-12.4,29.9V1719z"/>
		<path class="st1" d="M415.4,1666.3l-12.8-5.2c134-332.9,121.1-752.8,7.8-1113c-13.5-41.7-14.4-86.5-2.8-128.8
			c11.6-42.3,35.4-80.2,68.3-109.2c65.7-58.7,156.3-73,236.5-37.3c79.1,35.2,90,96.6,90,157.7h-13.8c0-65.2-13.9-114.8-81.8-145
			c-75.1-33.4-160.1-20-221.7,35c-30.9,27.2-53.2,62.9-64.1,102.6c-10.9,39.7-10,81.8,2.6,121
			C538.1,908.4,550.3,1331.2,415.4,1666.3z"/>
		<path class="st1" d="M792,634.3c-26.7,0-48.3-21.7-48.3-48.4c0-26.7,21.6-48.4,48.3-48.4c26.7,0,48.3,21.7,48.3,48.4
			C840.4,612.6,818.7,634.3,792,634.3z"/>
		<path class="st1" d="M866.4,670.2v-91.6h-14.2v91.6c-4.1,1.7-7.5,4.7-9.6,8.6c-2.1,3.9-2.8,8.4-1.9,12.7c0.8,4.3,3.2,8.2,6.6,11
			c3.4,2.8,7.7,4.3,12.1,4.3c4.4,0,8.7-1.5,12.1-4.3c3.4-2.8,5.7-6.7,6.6-11c0.8-4.3,0.2-8.8-1.9-12.7
			C873.9,674.9,870.5,671.9,866.4,670.2z"/>
		<path class="st2" d="M935.3,508.2c0-21.1-8.4-41.3-23.3-56.2c-14.9-14.9-35.1-23.3-56.1-23.3H724.7c-21.1,0-41.2,8.4-56.1,23.3
			s-23.2,35.1-23.2,56.2c0,21.1,8.4,41.3,23.2,56.2c14.9,14.9,35.1,23.3,56.1,23.3h131.1c21,0,41.2-8.4,56.1-23.3
			C926.9,549.5,935.2,529.3,935.3,508.2z"/>
		<path class="st3" d="M1120,1000.2c-13.2-168.6-80.5-249-37.4-299.4c41.3-48.3,157.6-38.3,232.3,8c201.5,124.9,275.3,622.7,16,866
			c-246.4,231.1-713.3,157.1-817-32.1c-24.2-44.1-43.4-121.5-8-168.4c88-116.3,407.8,94.4,550-37.4
			C1140.2,1258.9,1127.2,1092.8,1120,1000.2z"/>
		<path class="st4" d="M966,916.5c4.9,2.3,8.7,6.3,10.7,11.4c1.9,5,1.8,10.6-0.3,15.6c-0.4,1-1,2-1.6,2.9l43.2,57.8l-21.6,32.3
			l-50.7-85.6c-3.6-2.8-6.2-6.7-7.3-11.1c-1.1-4.4-0.8-9.1,1-13.3c1-2.4,2.5-4.5,4.4-6.3c1.9-1.8,4.1-3.2,6.5-4.1
			c2.4-0.9,5-1.4,7.6-1.3c2.6,0.1,5.1,0.6,7.5,1.7C965.7,916.3,965.9,916.4,966,916.5z"/>
		<path class="st2" d="M966.1,1016.1c-2.8,2.5,5,5.6,13.3,0.7c2.4-1.4,3.4-2,3.7-1.6c0.7,0.9-3.2,7.8-2.2,23.1
			c0.6,9.1,15.8,26.3,33,43.1c23.3,22.7,50.4,44.5,50.4,44.5l9.5-7.6l99.7-80l16.8-23.3c-1.5-9.2-3.9-18.3-6.9-27.1
			c-4.2-12.2-9.2-24.1-15-35.7c-3.1-6.3-6.3-12.3-9.3-17.8l-53.4,58.9l-44.7,49.3c0,0-13-21-23.1-26.7c-1.3-0.8-2.8-1.3-4.3-1.5
			c-10.2-0.5-10.8-6,1-18.1c11.8-12.1-3.1-0.8-13.6-4.1c-10.5-3.3,0,0-2.2-8.2c-2.2-8.2-31.7-24.5-31.7-24.5l-1.2,1.1l-22.3,19.7
			l-6.4,5.6c0,0,7,19.1,8.9,23.2C967.8,1013.4,968.9,1013.6,966.1,1016.1z"/>
		<path class="st4" d="M378.3,1387.4l-1.1-29.5l113.1-18.2l1.6,43.5L378.3,1387.4z"/>
		<path class="st5" d="M398.9,1396.3l1.1-47.2l-20.2,0.7l-32.5-43.6c-1.6-2.2-3.9-3.7-6.4-4.5c-2.6-0.8-5.3-0.7-7.9,0.2
			c-2.5,0.9-4.7,2.6-6.2,4.8s-2.3,4.9-2.2,7.6l2.1,56.1l20.3,8.9l-19.8,4.5l0.8,21.1L398.9,1396.3z"/>
		<path class="st5" d="M1014.8,1398.9l-358.2,9.1c0,0-154.7,8.9-191-14.7l-38.3-4.8l-2.1-56.3c0,0,23.4,0.2,36.9-6.1
			c13.5-6.3,4.1-14,16.9-6.4c12.8,7.5,11.5,8.5,21.4,5c9.9-3.5,464.7-72.9,464.7-72.9L1014.8,1398.9z"/>
		<path class="st4" d="M542.8,1374.5l-20.8-20.9l70.5-90.4l30.7,30.8L542.8,1374.5z"/>
		<path class="st5" d="M563.9,1356.3l-31.3-35.3l-14.3,14.3l-53.5-9.8c-2.6-0.5-5.4-0.1-7.8,1.1s-4.4,3.1-5.6,5.5
			c-1.2,2.4-1.7,5.1-1.3,7.8c0.4,2.7,1.6,5.1,3.5,7l39.6,39.7l20.9-7.3l-11.5,16.8l14.9,15L563.9,1356.3z"/>
		<path class="st5" d="M1156.1,1202.5l-3.6,82.9c-4.2,97.5-111.5,156.6-194.7,105.6c-1.5-0.9-3.1-1.9-4.6-2.9
			c0,0-31.5-8.5-30.6-21.9c1-13.4-6.7-20-13.6-16.3c-6.8,3.7-96.1-123.2-96.1-123.2s-185.5,92.6-226.4,114.4
			c0,0-38.5-60.2-35.7-59.6c2.8,0.6,229.5-158.2,229.5-158.2s36.9-37.4,82.8-12.7c1,3.6,0.1,3.8,0.1,3.8l151.4,123.5l21.4-40.7
			L1156.1,1202.5z"/>
		<path class="st2" d="M1013.4,1099c0.3,3.8,0.8,7.6,1.6,11.4c1.1,5.4,2.8,10.7,5.2,15.7c0,0,0,5.6,10.7,24.3
			c10.7,18.7-2.7,10.7-10.7,24.6c-8,13.9,0,7.5,8.9,16.4c2.6,2.6,4.4,5.8,5.3,9.4c0.9,3.5,0.8,7.3-0.2,10.8c0,0,114.7,0.1,136.1-7.9
			c21.4-8,26.2-53.2,7.1-57.7c-19.1-4.5,5.8-8.9,17-19.2c11.2-10.3-11.2-27.1-11.2-27.1s9.3-16,8.5-69.8c-0.1-4.9-0.6-9.9-1.4-14.8
			c-1.5-9.2-3.9-18.3-6.9-27.1c-4.2-12.2-9.2-24.1-15-35.7c-3.1-6.3-6.3-12.3-9.3-17.8c-0.5-0.9-0.9-1.7-1.4-2.5
			c-5.8-10.3-11.1-18.7-14.6-24c-2.7-4.2-4.3-6.5-4.3-6.5l-19.4-33.8l-64.9,30.4l3.7,49.8l-11.2,37.6l-5.2,17.3l-4,13.3l-6.1,20.7
			c0,0,1.7,0.1-0.3,2.8c-9.2,12.3-15.2,26.7-17.4,41.9C1013.1,1087.2,1012.9,1093.1,1013.4,1099z"/>
		<path class="st5" d="M826,1104.3l1.2-0.4l155.3-50.1l-57.2-187.9c-1.1-3.7-3.1-7.2-5.8-10c-2.7-2.9-5.9-5.1-9.6-6.5
			c-3.6-1.4-7.6-2-11.5-1.7c-3.9,0.3-7.7,1.5-11,3.5l-99.2,58.7c-7.9,4.6-13.8,11.9-16.9,20.5c-3.1,8.6-3,18,0.2,26.6L826,1104.3z"
			/>
		<path class="st2" d="M825.4,1116.3l156.5-50.5l-57.2-187.9c-1.1-3.7-3.1-7.2-5.8-10c-2.7-2.9-5.9-5.1-9.6-6.5
			c-3.6-1.4-7.6-2-11.5-1.7c-3.9,0.3-7.7,1.5-11,3.5l-104,52c-15.6,9.2-15.3,33.1-8,52.8L825.4,1116.3z"/>
		<path class="st3" d="M841,1129.9c3.6,2,7.6,3.3,11.7,3.7c4.1,0.4,8.3,0,12.2-1.3L965,1100c7.7-2.5,14.1-7.9,17.8-15.1
			c3.7-7.2,4.5-15.5,2.2-23.3l-50.2-164.7c-1-3.3-2.6-6.4-4.8-9c-2.2-2.6-4.9-4.8-8-6.4c-3-1.6-6.4-2.5-9.8-2.8
			c-3.4-0.3-6.9,0.1-10.1,1.2L798.4,914c-4.9,1.6-9.5,4.2-13.4,7.6c-3.9,3.4-7.1,7.6-9.4,12.3c-2.3,4.7-3.6,9.8-3.9,15
			c-0.3,5.2,0.5,10.4,2.2,15.3l53.6,149.7C830,1120.6,834.8,1126.3,841,1129.9z"/>
		<path class="st4" d="M1058,868.2c-39.6,0-71.7-32.1-71.7-71.7s32.1-71.7,71.7-71.7c39.6,0,71.7,32.1,71.7,71.7
			S1097.6,868.2,1058,868.2z"/>
		<path class="st5" d="M1300.4,869.3c-6.6,12.8-17.4,22.9-30.5,28.6c-5.3,2.4-10.8,4.1-16.4,5.2c-1.6-6.4-4.2-12.4-7.6-18
			c1.1,6.3,1.1,12.8,0,19.1c-8.6,0.7-17.3-0.4-25.5-3.2c-8.1-2.7-15.4-7.3-21.4-13.4c-6-6.1-10.5-13.4-13.1-21.5
			c-5.7-19,0.4-39.3,0.9-59.2c0.5-19.9-8.9-43.6-28.6-46.1c-15-1.9-13.1-0.4-23.9,10.2c15.1,16.8-21.7,91-41.4,87.7
			c-11.1-1.9-19.3-10.7-21.5-10.4c-11.3,27.7,22.7,66.9-4.3,79.8l2-2.6c14.1-23.3-27.6-62.7-13.5-86c3.9-6.5,8-14.2,5.6-21.4
			c-2.3-6.9-14-9-16.5-2.8c4-14.3-7.2-31.1-22-32.6c-13.2-1.3-12.4,2.5-25,5.9c-1.6-5.4-3.9-10.6-6.9-15.4c1,5.5,1.1,11.1,0.4,16.7
			c-4.5,0.5-9.1-0.4-13.1-2.8c-11.6-7-12-25-4-35.9c8-11,21.4-16.4,34.3-20.5c0.1-27.4,73.7-40.5,87.2-15c1.4-20.6,25-34.5,45.3-31
			c20.3,3.5,36.4,19.8,46.1,38c9.8,18.2,14.6,38.5,21.8,57.9c7.2,19.4,17.4,38.6,34.5,50.1c17.1,11.5,42.6,12.5,56.9-2.4
			c3.3,6.3,5,13.4,5,20.5C1305.2,855.9,1303.5,862.9,1300.4,869.3z"/>
		<path class="st3" d="M1226.8,1197.4c-1.5-1.2-3.1-2.2-4.8-3c-27.4-13.7-112.7-49.1-179.4-47.7c-128.3,2.8-291.7,144.6-253.7,239.8
			c28.9,72.4,172.7,113.7,277.7,80.7C1213.7,1421,1271.7,1233.2,1226.8,1197.4z"/>
		<path class="st6" d="M1759.6,1719.3c41.9-7.9,79.1-197-3.5-290.2c-28.3-31.9-63.5-45.8-110.4-58.7c-270-74.4-475.9-3.5-503.5,13.8
			c-27.6,17.3-76,277.5-14.1,314.4c34.8,20.7,103.8,31.1,138,6.9c50.3-35.6-34.1-127.9,3.5-190c42.7-70.5,267.3-94.2,379.9-24.2
			C1769.6,1566.1,1521.8,1764.2,1759.6,1719.3z"/>
		<path class="st7" d="M1479.2,1397.8h160.2c39.6-37.9,67.8-74.5,45.2-104.9c0-8.7-3.5-17.1-9.6-23.3c-6.2-6.2-14.5-9.6-23.2-9.6
			h-184.9c-8.7,0-17.1,3.5-23.2,9.6c-6.2,6.2-9.6,14.5-9.6,23.3C1425.4,1327.5,1440.8,1362.4,1479.2,1397.8z"/>
		<path class="st7" d="M1508,1218.6c1.5,0.1,3-0.3,4.3-1.1c1.3-0.8,2.3-2,2.9-3.4c0.6-1.4,0.7-3,0.4-4.4c-0.3-1.5-1.1-2.8-2.2-3.9
			l-0.5-2c0.1-0.2,0.1-0.3,0.2-0.5c1.5-3.6,4.1-6.7,7.4-8.9c3.3-2.2,7.1-3.3,11-3.3c3.9,0,7.8,1.2,11,3.4c3.3,2.2,5.8,5.3,7.3,8.9
			c6,14.5,13.7,29,15.6,44.3c0.8,6.8,0.5,13.6-1,20.3c14.1-30.8,21.5-64.4,21.5-98.3c0-8.5-0.5-17-1.4-25.5
			c-0.8-6.9-1.9-13.8-3.3-20.7c-7.6-37.1-23.8-71.9-47.4-101.4c-11.4-6.2-20.7-15.8-26.5-27.5c-2.1-4.2-3.6-8.7-4.4-13.3
			c1.3,0.2,4.9-19.5,3.9-20.7c1.8-2.7,5-4.1,7-6.7c9.8-13.2,23.2-10.9,30.2,7.1c15,7.6,15.1,20.1,5.9,32.2
			c-5.8,7.7-6.7,18.1-11.8,26.3c0.5,0.7,1.1,1.3,1.6,2c9.7,12.4,18.1,25.8,25.1,39.8c-1.7-15.8,0.3-31.7,6-46.5
			c5.7-13.8,16.4-25.4,25.9-37.4c11.3-14.3,34.6-8.1,36.6,10.1c0,0.2,0,0.4,0.1,0.5c-1.4,0.8-2.8,1.6-4.1,2.5
			c-1.7,1.1-3,2.7-3.8,4.6c-0.8,1.9-0.9,4-0.5,5.9c0.4,2,1.5,3.8,2.9,5.2c1.5,1.4,3.3,2.3,5.3,2.6l0.2,0c-0.5,5.1-1.4,10.1-2.6,15
			c12.1,46.9-14,63.9-51.3,64.7c-0.8,0.4-1.6,0.8-2.4,1.2c7.1,20.1,11.5,41,13.2,62.3c1,12.5,0.9,25.1-0.2,37.7l0.1-0.4
			c2.7-13.9,10.1-26.5,21-35.6c16.2-13.3,39-18.2,56.5-28.9c1.9-1.2,4-1.8,6.2-1.8c2.2,0,4.4,0.6,6.2,1.8c1.9,1.2,3.3,2.9,4.3,4.9
			c0.9,2,1.3,4.2,1,6.4c0,0.2,0,0.3-0.1,0.5c-2.6,1.1-5.1,2.3-7.6,3.7c-1.4,0.8-2.8,1.6-4.1,2.5c-1.7,1.1-3,2.7-3.7,4.6
			c-0.8,1.9-0.9,4-0.5,5.9c0.4,2,1.5,3.8,2.9,5.2c1.5,1.4,3.3,2.3,5.3,2.6l0.2,0c0.1,0,0.3,0,0.4,0.1c-4.4,10.6-10.7,20.4-18.4,28.9
			c-7.6,40.9-40.1,44.8-74.9,32.9h0c-3.8,16.6-9.3,32.8-16.5,48.2h-58.9c-0.2-0.7-0.4-1.3-0.6-2c5.5,0.3,10.9,0,16.3-1
			c-4.4-5.4-8.7-10.8-13.1-16.2c-0.1-0.1-0.2-0.2-0.3-0.3c-2.2-2.7-4.5-5.5-6.7-8.2v0C1505,1235.2,1506,1226.8,1508,1218.6
			L1508,1218.6z"/>
		<path class="st7" d="M1307,1389.2c-1,2.9-2.8,5.3-5.3,7c-2.5,1.7-5.4,2.6-8.4,2.6l-58.8-1.5c-3-0.1-6-1.1-8.4-3
			c-2.4-1.9-4.1-4.5-4.9-7.4l-8.3-89c-3,1.3-6.2,2-9.4,1.9c-5.7-0.1-11.1-2.5-15-6.7c-3.9-4.1-6-9.6-5.9-15.3
			c0.1-5.7,2.5-11.1,6.7-15c4.1-3.9,9.6-6,15.3-5.9c1.3,0,2.6,0.1,3.8,0.4c1.4-1.5,3.1-2.7,4.9-3.5c1.9-0.8,3.9-1.2,5.9-1.2
			l90.4,2.3c0.7,0,1.5,0.1,2.2,0.3c2,0.4,3.9,1.2,5.5,2.3c1.7,1.2,3,2.7,4.1,4.4c1,1.7,1.7,3.7,1.9,5.7c0.2,2,0,4-0.6,6L1307,1389.2
			z M1211.2,1291.9l-5.9-21.2c-0.7-2.4-0.7-5,0-7.5c-0.3,0-0.5-0.1-0.8-0.1c-4.1-0.1-8,1.4-10.9,4.3c-2.9,2.8-4.6,6.7-4.7,10.7
			c-0.1,4.1,1.4,8,4.2,10.9c2.8,2.9,6.6,4.7,10.7,4.8C1206.3,1293.8,1208.9,1293.1,1211.2,1291.9z"/>
		<path class="st8" d="M1311.9,1255.3c-1.9,11-23.6,18.8-49.6,17.4c-23.9-1.1-43.5-9.5-47.1-19.5c1.3-0.4,2.7-0.6,4.1-0.5l90.4,2.3
			C1310.4,1255,1311.2,1255.1,1311.9,1255.3z"/>
		<path class="st9" d="M1989.9,1723.5l-1979.3,0.8c-0.8,0-1.6-0.3-2.2-0.9c-0.6-0.6-0.9-1.4-0.9-2.2c0-0.8,0.3-1.6,0.9-2.2
			c0.6-0.6,1.4-0.9,2.2-0.9l1979.3-0.8c0.8,0,1.6,0.3,2.2,0.9c0.6,0.6,0.9,1.4,0.9,2.2c0,0.8-0.3,1.6-0.9,2.2
			C1991.5,1723.1,1990.7,1723.5,1989.9,1723.5z"/>
		<path class="st4" d="M879.7,1019.3c5.4,0.2,10.5,2.5,14.2,6.4c3.7,3.9,5.8,9.1,5.7,14.5c0,1.1-0.1,2.2-0.4,3.3l62.1,36.7
			l-7.5,38.1l-79.7-59.5c-4.4-1.2-8.3-3.8-11-7.5c-2.7-3.6-4.2-8.1-4.2-12.6c0.1-2.6,0.6-5.2,1.6-7.5c1-2.4,2.5-4.5,4.4-6.3
			c1.9-1.8,4.1-3.2,6.5-4.2c2.4-0.9,5-1.4,7.6-1.4C879.4,1019.3,879.5,1019.3,879.7,1019.3z"/>
		<path class="st2" d="M930.6,1106.8c1.7-2.2,2.4-3.2,2.8-2.9c1,0.6,0,8.5,6.9,22.2c9.6,19.3,110.6,48.8,110.6,48.8l12.4-22.8
			L1118,1052l18.9-80.3c0.7-2.8,1-5.7,1-8.5c-16.8-11.8-34.7-22.1-53.3-30.7c-7.5,4.2-13.1,11-16,19.1l-37.6,105.7l-15,42.2
			c0,0-26.5-19-36.1-15.5c-9.6,3.5-12.3-1.4-6.1-17.1c6.3-15.7-3.1,0.5-14.1,1.5c-11,1,0,0-5.2-6.7c-5.2-6.7-38.7-10.4-38.7-10.4
			l-0.7,1.5l-13,26.8l-3.7,7.7c0,0,13.8,15,17.1,17.9c3.3,3,4.4,2.8,2.7,6.2C916.4,1114.7,924.8,1114.5,930.6,1106.8z"/>
	</g>
</g>
<g>
</g>
<g>
</g>
<g>
</g>
<g>
</g>
<g>
</g>
<g>
</g>
<g>
</g>
<g>
</g>
<g>
</g>
<g>
</g>
<g>
</g>
<g>
</g>
<g>
</g>
<g>
</g>
<g>
</g>
</svg>
